HIERARCHY
ROOT Hips
{
	OFFSET -14.64140 90.27770 -84.91600
	CHANNELS 6 Xposition Yposition Zposition Zrotation Xrotation Yrotation
	JOINT Spine
	{
		OFFSET 0.00000 13.20850 -1.60436
		CHANNELS 3 Zrotation Xrotation Yrotation
		JOINT Spine1
		{
			OFFSET 0.00000 8.61716 0.00000
			CHANNELS 3 Zrotation Xrotation Yrotation
			JOINT Spine2
			{
				OFFSET 0.00000 8.61717 0.00000
				CHANNELS 3 Zrotation Xrotation Yrotation
				JOINT Spine3
				{
					OFFSET 0.00000 8.61717 0.00000
					CHANNELS 3 Zrotation Xrotation Yrotation
					JOINT Neck
					{
						OFFSET 0.00000 11.07920 1.10792
						CHANNELS 3 Zrotation Xrotation Yrotation
						JOINT Neck1
						{
							OFFSET 0.00000 7.08032 0.00000
							CHANNELS 3 Zrotation Xrotation Yrotation
							JOINT Head
							{
								OFFSET 0.00000 7.08031 0.00000
								CHANNELS 3 Zrotation Xrotation Yrotation
								End site
								{
									OFFSET 0.00000 0.00000 0.00000
								}
							}
						}
					}
					JOINT RightShoulder
					{
						OFFSET -0.01000 7.91373 5.19711
						CHANNELS 3 Zrotation Xrotation Yrotation
						JOINT RightArm
						{
							OFFSET -18.41580 0.00000 0.00000
							CHANNELS 3 Zrotation Xrotation Yrotation
							JOINT RightForeArm
							{
								OFFSET -29.11090 0.00000 0.00000
								CHANNELS 3 Zrotation Xrotation Yrotation
								JOINT RightHand
								{
									OFFSET -24.65040 0.00000 0.00000
									CHANNELS 3 Zrotation Xrotation Yrotation
									JOINT RightHandThumb1
									{
										OFFSET -5.35114 -0.85590 3.97906
										CHANNELS 3 Zrotation Xrotation Yrotation
										JOINT RightHandThumb2
										{
											OFFSET -4.52789 0.00000 0.00000
											CHANNELS 3 Zrotation Xrotation Yrotation
											JOINT RightHandThumb3
											{
												OFFSET -2.46976 0.00000 0.00000
												CHANNELS 3 Zrotation Xrotation Yrotation
												End site
												{
													OFFSET 0.00000 0.00000 0.00000
												}
											}
										}
									}
									JOINT RightHandIndex1
									{
										OFFSET -14.26970 0.00000 2.88139
										CHANNELS 3 Zrotation Xrotation Yrotation
										JOINT RightHandIndex2
										{
											OFFSET -5.48836 0.00000 0.00000
											CHANNELS 3 Zrotation Xrotation Yrotation
											JOINT RightHandIndex3
											{
												OFFSET -3.01859 0.00000 0.00000
												CHANNELS 3 Zrotation Xrotation Yrotation
												End site
												{
													OFFSET 0.00000 0.00000 0.00000
												}
											}
										}
									}
									JOINT RightHandMiddle1
									{
										OFFSET -14.26970 0.00000 -0.09147
										CHANNELS 3 Zrotation Xrotation Yrotation
										JOINT RightHandMiddle2
										{
											OFFSET -6.17441 0.00000 0.00000
											CHANNELS 3 Zrotation Xrotation Yrotation
											JOINT RightHandMiddle3
											{
												OFFSET -3.56743 0.00000 0.00000
												CHANNELS 3 Zrotation Xrotation Yrotation
												End site
												{
													OFFSET 0.00000 0.00000 0.00000
												}
											}
										}
									}
									JOINT RightHandRing1
									{
										OFFSET -12.69180 0.00000 -3.06433
										CHANNELS 3 Zrotation Xrotation Yrotation
										JOINT RightHandRing2
										{
											OFFSET -5.62556 0.00000 0.00000
											CHANNELS 3 Zrotation Xrotation Yrotation
											JOINT RightHandRing3
											{
												OFFSET -3.56744 0.00000 0.00000
												CHANNELS 3 Zrotation Xrotation Yrotation
												End site
												{
													OFFSET 0.00000 0.00000 0.00000
												}
											}
										}
									}
									JOINT RightHandPinky1
									{
										OFFSET -11.11390 0.00000 -6.03719
										CHANNELS 3 Zrotation Xrotation Yrotation
										JOINT RightHandPinky2
										{
											OFFSET -4.52789 0.00000 0.00000
											CHANNELS 3 Zrotation Xrotation Yrotation
											JOINT RightHandPinky3
											{
												OFFSET -2.46976 0.00000 0.00000
												CHANNELS 3 Zrotation Xrotation Yrotation
												End site
												{
													OFFSET 0.00000 0.00000 0.00000
												}
											}
										}
									}
								}
							}
						}
					}
					JOINT LeftShoulder
					{
						OFFSET 0.01000 7.91373 5.19711
						CHANNELS 3 Zrotation Xrotation Yrotation
						JOINT LeftArm
						{
							OFFSET 18.41580 0.00000 0.00000
							CHANNELS 3 Zrotation Xrotation Yrotation
							JOINT LeftForeArm
							{
								OFFSET 29.11090 0.00000 0.00000
								CHANNELS 3 Zrotation Xrotation Yrotation
								JOINT LeftHand
								{
									OFFSET 24.65040 0.00000 0.00000
									CHANNELS 3 Zrotation Xrotation Yrotation
									JOINT LeftHandThumb1
									{
										OFFSET 5.35114 -0.85590 3.97906
										CHANNELS 3 Zrotation Xrotation Yrotation
										JOINT LeftHandThumb2
										{
											OFFSET 4.52789 0.00000 0.00000
											CHANNELS 3 Zrotation Xrotation Yrotation
											JOINT LeftHandThumb3
											{
												OFFSET 2.46977 0.00000 0.00000
												CHANNELS 3 Zrotation Xrotation Yrotation
												End site
												{
													OFFSET 0.00000 0.00000 0.00000
												}
											}
										}
									}
									JOINT LeftHandIndex1
									{
										OFFSET 14.26970 0.00000 2.88139
										CHANNELS 3 Zrotation Xrotation Yrotation
										JOINT LeftHandIndex2
										{
											OFFSET 5.48836 0.00000 0.00000
											CHANNELS 3 Zrotation Xrotation Yrotation
											JOINT LeftHandIndex3
											{
												OFFSET 3.01859 0.00000 0.00000
												CHANNELS 3 Zrotation Xrotation Yrotation
												End site
												{
													OFFSET 0.00000 0.00000 0.00000
												}
											}
										}
									}
									JOINT LeftHandMiddle1
									{
										OFFSET 14.26970 0.00000 -0.09147
										CHANNELS 3 Zrotation Xrotation Yrotation
										JOINT LeftHandMiddle2
										{
											OFFSET 6.17440 0.00000 0.00000
											CHANNELS 3 Zrotation Xrotation Yrotation
											JOINT LeftHandMiddle3
											{
												OFFSET 3.56744 0.00000 0.00000
												CHANNELS 3 Zrotation Xrotation Yrotation
												End site
												{
													OFFSET 0.00000 0.00000 0.00000
												}
											}
										}
									}
									JOINT LeftHandRing1
									{
										OFFSET 12.69180 0.00000 -3.06433
										CHANNELS 3 Zrotation Xrotation Yrotation
										JOINT LeftHandRing2
										{
											OFFSET 5.62556 0.00000 0.00000
											CHANNELS 3 Zrotation Xrotation Yrotation
											JOINT LeftHandRing3
											{
												OFFSET 3.56744 0.00000 0.00000
												CHANNELS 3 Zrotation Xrotation Yrotation
												End site
												{
													OFFSET 0.00000 0.00000 0.00000
												}
											}
										}
									}
									JOINT LeftHandPinky1
									{
										OFFSET 11.11390 0.00000 -6.03719
										CHANNELS 3 Zrotation Xrotation Yrotation
										JOINT LeftHandPinky2
										{
											OFFSET 4.52789 0.00000 0.00000
											CHANNELS 3 Zrotation Xrotation Yrotation
											JOINT LeftHandPinky3
											{
												OFFSET 2.46976 0.00000 0.00000
												CHANNELS 3 Zrotation Xrotation Yrotation
												End site
												{
													OFFSET 0.00000 0.00000 0.00000
												}
											}
										}
									}
								}
							}
						}
					}
					JOINT pCube4
					{
						OFFSET 0.00000 10.91090 1.10792
						CHANNELS 3 Zrotation Xrotation Yrotation
						End site
						{
							OFFSET 0.00000 0.00000 0.00000
						}
					}
				}
			}
		}
	}
	JOINT RightUpLeg
	{
		OFFSET -9.98441 0.00000 0.00000
		CHANNELS 3 Zrotation Xrotation Yrotation
		JOINT RightLeg
		{
			OFFSET 0.00000 -42.11790 0.00000
			CHANNELS 3 Zrotation Xrotation Yrotation
			JOINT RightFoot
			{
				OFFSET 0.00000 -45.00020 -0.00001
				CHANNELS 3 Zrotation Xrotation Yrotation
				JOINT RightForeFoot
				{
					OFFSET 0.00000 -3.74820 0.00000
					CHANNELS 3 Zrotation Xrotation Yrotation
					JOINT RightToeBase
					{
						OFFSET 0.00000 0.06325 14.43120
						CHANNELS 3 Zrotation Xrotation Yrotation
						End site
						{
							OFFSET 0.00000 0.00000 0.00000
						}
					}
				}
			}
		}
	}
	JOINT LeftUpLeg
	{
		OFFSET 9.98441 0.00000 0.00000
		CHANNELS 3 Zrotation Xrotation Yrotation
		JOINT LeftLeg
		{
			OFFSET 0.00000 -42.11800 0.00000
			CHANNELS 3 Zrotation Xrotation Yrotation
			JOINT LeftFoot
			{
				OFFSET 0.00000 -45.00070 0.00000
				CHANNELS 3 Zrotation Xrotation Yrotation
				JOINT LeftForeFoot
				{
					OFFSET 0.00000 -3.74824 0.00000
					CHANNELS 3 Zrotation Xrotation Yrotation
					JOINT LeftToeBase
					{
						OFFSET 0.00000 0.06325 14.43110
						CHANNELS 3 Zrotation Xrotation Yrotation
						End site
						{
							OFFSET 0.00000 0.00000 0.00000
						}
					}
				}
			}
		}
	}
}
MOTION
Frames: 4
Frame Time: 0.050000
-0.04210241488033342 -0.02047610795326202 -0.00097187869094703 0.006937986877099603 0.026203887979700594 0.04990922013470988 -2.806652757454263 0.4113408128814283 -0.7804690429818277 -1.0135126747501666 3.5657114812897115 0.30529477072584926 -0.9221035343553217 -2.088910284958077 -2.6150063376086377 -0.880643194855215 0.3333622328227913 -0.966941158096707 -2.312419683864484 12.3042043802334 5.94345007757971 -0.11760839227241988 0.13421777018595643 13.479887965685533 -1.8594274391752659 -14.565339210340428 1.1898253205062181 -2.7822598300147403 1.416048352735192 -13.500702036307645 69.90122784058885 28.90666892612463 0.2958215990836883 8.194006037408402 -0.9664474703068675 84.41809499143946 17.885887471440448 -0.4247055671172361 -3.9822877170105673 4.491081129287292 -0.16817941947461687 -1.6186795084435355 0.03321399451718262 0.025381977388748134 -56.2775151880225 -0.018185812764968702 -0.03956469239664834 -56.25089685782128 -38.789015487529255 -0.04044767699452522 0.04415050613193717 -0.01608357933730709 -0.006597315221636304 0.007686031645664634 -0.039897601029744115 -0.03432708190657036 0.019202973041384512 -36.69733653248325 -0.008300219634850522 0.0014789768366568036 -0.03830332239631162 -0.03004105488709517 0.007254545661794755 0.025890805373910603 0.0036484086549849527 0.015126658014123126 -19.761929316866613 -0.04975146372242409 0.016582454385902612 0.04763709655386719 -0.03764918439860513 0.02966289057427019 0.03491496255928665 -0.009093522586505413 0.04143467261341698 24.06294219636902 -0.028055212549137603 -0.001361485312604212 28.868355877305362 0.03669131755565219 0.025091689677637526 28.888074490724637 -0.032193976868502804 -0.04285144367014104 9.824090383430333 2.079754525103631 12.361776289852324 -69.0384161792743 15.791505695827029 -23.061183661656592 -20.37555400695046 -12.328290037623661 -77.71079668539197 -5.947907198907982 -2.9235255820896464 0.1629950362964868 -0.4578049555685947 0.048446885943334926 -8.158694590324801 -0.039653793770399924 -0.025067938383494554 44.536746379629754 0.017327272631309006 0.025694351595326327 44.57147514375258 12.416313565255921 -0.03336404344786646 -0.03391115470205094 -0.005872104173549111 -0.024445081442135558 -0.03718083356008322 -0.03453449502007997 0.03509080785622895 0.023295608616606157 11.12737034858202 0.01877796322857 -0.019427915978062458 0.02692301187111757 -0.007557810176732875 -0.043412975326080766 -0.0035499875769660337 0.03381593147662784 0.011433586545576298 4.753541328119133 -0.03445115921926957 -0.005195336861228725 -0.023294424593026913 -0.016994998674953517 -0.005425527060913294 0.0006718131303318709 -0.01722311231101143 0.025062317241471177 -5.618297064409085 0.02760536935749867 0.019574340577177635 -6.732968052670667 0.014033354191894047 0.04476269385243536 -6.687431793877506 -0.026001290471282187 -0.0024740145431331136 0.011032243761261093 -0.04781969036384214 -0.012854999812231354 8.056485042844876 3.487081238751935 -19.230043331008932 -0.04494096485626142 10.439595055865505 0.011632544792032538 -5.62278592454733 -15.64234460417383 3.1847456991113896 -0.0012564072627769135 -0.0174450187426603 -0.0187823632164641 -0.04078296954603823 4.6624457701909865 0.032586512291077584 12.508591016073463 -8.248873631557668 6.892413003953715 -0.015482636720663596 46.424818848727725 -0.009461515127559404 -4.363232674653744 -14.764439408854962 -3.8041760644530473 0.03113635452338335 -0.03200039405385663 -0.04754906672124262 0.018356232284308712 -10.72085836394645 -0.039996382053001434 
-0.014565784267028268 0.030413257051795692 -0.04168213090552576 -0.04010365175591818 0.02834913440483085 0.003162966825458289 -2.706852877792402 0.5091871988258828 -0.802911881197232 -0.9708054837456135 3.5128445800409556 0.3826734535731778 -0.8742552564454892 -2.000390642234853 -2.6937349715027707 -0.7559648615334084 0.31149981338051647 -1.0080033810784343 -2.251106232927749 12.265953281901188 5.866058969716018 -0.16795562610188153 0.10052651852393008 13.325063054095203 -1.9545594136021975 -14.60526532620013 1.1038375645839036 -2.8347793813308035 1.4400231425289634 -13.35273132881305 69.78050603962669 28.367772947468623 0.6761295258522284 8.956611456865568 -0.5702847336797502 83.38343361585035 18.034580844495366 -0.45189834107435156 -4.059524336434638 4.484158075239169 -0.111053419482191 -1.584951751776263 0.031061548887720725 0.04053700846828873 -56.268634602364536 0.028963694298425605 -0.00200599061961843 -56.21861927570207 -38.76181650271455 0.007553434748761486 -0.0047550002994962495 -0.04767082943611294 -0.007608270965277562 0.02798116061604974 -0.013108132579400071 0.01512297047407018 1.69016802627706e-05 -36.73219961800295 -0.013624438239402861 -0.0025647217280377337 -0.02226749884395279 -0.033310329836117814 -0.022992392339647793 -0.028169940386888352 -0.025516407419883397 -0.019065610084431507 -19.734945906035502 -0.017661233369133954 0.0409059671415594 0.03457157318514233 -0.004537436486766403 0.0010127679576871357 -0.018484095249091278 0.00509693206741302 -0.04633973193643248 24.081792670762113 0.007316478617710182 -0.0037145554526630017 28.861398609401093 0.047354070697007845 -0.005048248894583011 28.829846364503005 -0.019847050570770974 -0.04189202621813132 9.9697251805987 2.1136733823817613 12.206457371483578 -68.30610307315246 15.564160830361505 -24.599303398679453 -17.252004787819825 -13.221203000795114 -76.99988241557072 -5.830414418874125 -2.839077005625943 0.487918492288574 -0.4584056088277816 0.10874897224753717 -8.12825673857479 0.025020315324917587 -0.043750802258610055 44.57907726103996 -0.04217745285892735 0.03682914428457964 44.563553846612656 12.431479729511675 -0.022815366418412246 -0.002298844451257731 0.008132483054014553 -0.009798615775882404 -0.04808965311533284 0.02839428953645607 0.01150162104642029 0.04483675601555493 11.109176806857738 -0.017320819593089825 -0.037024843683896774 -0.0016331480907412206 -0.031704525357601016 -0.028201326372339214 -0.021954319341603436 0.02731657316220303 -0.033211777193110345 4.746606107501507 0.02514459485343448 0.045510190941936535 -0.03103125991582498 0.0019659014784028047 -0.024299911304433926 -0.01495420159723667 0.016228278877110827 0.0025053919965698436 -5.593193735145162 0.03128534967887352 -0.03151347720212317 -6.679507048927391 0.009363222695287237 -0.025083295947926413 -6.703866440134773 0.015381014968237081 -0.004370365417979894 0.04931266382232432 0.011749210367924229 0.0066246928970810255 8.031465438723613 3.4748303250265753 -19.251112179392926 0.004728100337975359 10.359817085118642 0.06392093170016491 -5.572052994974393 -15.667575932212904 3.207811000449399 0.019004402480680974 -0.003825323176574866 -0.036788976272316844 0.026905649849631976 4.656775479902646 -0.0023149484921230748 12.460970607641901 -8.197125893638589 6.852544010648363 0.03558601360360409 46.40922394785923 0.003133465054485582 -4.290528333885994 -14.773159434963327 -3.8328175545938143 0.00918544228489591 -0.02758355542942177 -0.012059224479190578 0.019237279676955 -10.727580683828394 0.0292928207112184 
0.0019270334801316982 -0.03069201029855442 0.03789844637643281 -0.019299241309406925 -0.018707311332214704 -0.048138845395937505 -2.6774744955291085 0.5748896403055944 -0.8439930626233559 -1.0056441998017798 3.451719862949939 0.32084516193068213 -0.8706372429410456 -1.9961595665286562 -2.8601092914903927 -0.7722610447440827 0.3174818302575135 -1.0071447121125414 -2.297241886017922 12.21638748088017 5.767430011541188 -0.1570512748574723 0.07620707047662058 13.0072262712168 -1.933924076814141 -14.690125943649452 1.0744670187960557 -2.8843253349734503 1.4383316975396794 -13.207583018846544 69.52572420322525 27.98947484835886 1.4242528502927736 10.723307685657026 -0.1688779015481734 83.12641280072407 18.550235741443508 -0.4368891569981822 -4.362248444033444 4.5022301761384815 -0.0918904691534298 -1.618703284959459 0.02849422378587065 0.009170334042851865 -56.222888201893866 0.00832989339112029 0.01929315281566084 -56.27958304796412 -38.7453834131781 -0.04816127314024765 -0.009295177080922446 -0.005765786271308211 -0.023657734891039846 0.041632422566971174 0.012544900658692518 0.0025554387131962925 -0.04450100457360365 -36.662905086850394 -0.006406565337401491 0.0010582396222526796 0.0366926003164978 -0.02342874407967503 -0.022668919326728 -0.007506178343975095 0.01284135331363036 0.02617559851539207 -19.754301882752983 0.037438656494711724 -0.0061971219732263215 -0.0036101949256989213 0.049577991753323954 0.015382823409586088 -0.021878099673075194 -0.013123251756946447 -0.002628819940589089 24.1005798212652 0.04688643670796013 0.03503709551208098 28.85803467121366 0.02226160572232189 -8.403452272807273e-05 28.880123896009977 -0.005099911115951782 -0.012435263374070703 10.149904868037458 2.187175218505644 11.91525801350492 -67.26739505950931 15.351491467086285 -26.29813298259583 -15.661932948889971 -13.673165466888385 -75.83875666299798 -6.305910243619446 -2.8095027347941284 1.1230933162565788 -0.4602501079913187 0.0716808043788541 -8.155394291150005 -0.021481337128871517 0.006398787109157246 44.570266575955635 0.026061082814798634 -0.014739618820070221 44.56656830401773 12.481170800478994 -0.009271497263967317 0.02046544372399994 0.03625694809695499 0.03603394663245405 -0.03919407519917878 0.015570938920809655 -0.00865461402130175 0.03692513359674307 11.064947010536267 0.0035312903695653287 0.014225224437820717 -0.012221485302492402 0.019947621675124472 -0.03738920633651559 0.01756479177832813 0.013230838460037437 -0.026260864891337294 4.784571242673842 0.01613100155969063 -0.04788367959221785 0.03644714557801767 -0.03299156689818279 -0.04208226836402683 -0.0063555457009492455 -0.03453010884101732 0.005405627464604674 -5.5612228535967585 -0.008202829129776792 -0.022877726398003524 -6.737659439604155 -0.000192896971224709 0.029599244128560506 -6.725021827872124 -0.0023302169701585034 0.0334040693540798 0.022605124309644235 -0.012091547464434076 0.008922236126484195 8.026786329150529 3.536337196126608 -19.23522482884098 0.03518359502488996 10.411917081714428 0.020936598538009818 -5.612650967991793 -15.671460195602666 3.225204312210211 -0.03411651248881618 0.006046361835088203 -0.020889413010425524 -0.007408619890221643 4.652087213189718 0.03066646668507143 12.495175055386198 -8.278297544330648 6.90328504515862 -0.0489754134632776 46.366546845806845 0.010012751976054841 -4.345931034207768 -14.750145928544173 -3.8254325441395127 0.0465787806830223 -0.04036541834709416 0.013118367038892327 -0.013422250675374663 -10.751556378487422 -0.009817471907869704 
0.01674818931305269 -0.04951688369659446 0.0012190543555563522 0.0411257581663918 0.0394631506270479 0.0016563739352795691 -2.6840792568165095 0.6771515772191599 -0.7781265344948591 -1.0098360414131728 3.4698622380890103 0.3578019942724775 -0.8923356185189798 -1.981452971343443 -3.045717011896183 -0.6386417714066077 0.302106010270796 -1.0248041227498195 -2.2361059911799424 12.216306528960082 5.58243656130957 -0.20987365231117197 -0.004613532700583112 12.607045748340528 -1.9092885384657685 -14.732779178716214 1.1202928249465727 -2.938487467400512 1.4327596288405267 -13.08578450372977 69.31013318185434 27.386894195009003 1.9575907426136359 11.841364585000228 0.08877608582421981 81.826217861768 18.884406491296176 -0.3920137644126774 -4.554743389216453 4.528717826892962 -0.11367440229505502 -1.577101359174471 -0.030685043638433444 -0.021320575726362218 -56.21575594116067 -0.024296491068805944 -0.024622912250600915 -56.22687954587776 -38.77621139155085 -0.037256671400177195 -0.0029753523316421292 -0.04005020218941294 0.0011432012007945047 0.003870149052486798 -0.039358851375365426 0.03210030698359567 0.04046021638015621 -36.650599336640475 0.021998347228864075 0.044544585277245224 0.00999320136483726 0.013776208157392323 -0.048978171628840814 -0.024975522772916543 0.03630568620408498 -0.02239992189281066 -19.792715160649387 -0.04791650690283751 -0.04601119995830861 0.007850259333448987 -0.03836928082552936 0.04320398955667966 0.023427653676800896 -0.044918799434061296 0.015587099630284889 24.053767941570328 -0.00441360389497048 -0.013761122366410632 28.815309867016797 0.012772618803909253 0.01502628916782871 28.867212413942323 0.03006187615564081 -0.02498166543897021 10.144998242727757 2.170879050134616 11.80170673564238 -66.27893662375584 15.354956366067823 -27.382494976061434 -13.922505077534671 -14.233796644909994 -73.773297018999 -6.801056206638248 -2.9699380985498456 1.862570405533348 -0.4977968662169932 0.034455059606585785 -8.153464843684077 0.0021891731169878716 0.034895692131359006 44.603733723558115 -0.02949916469910044 -0.00506161518857417 44.524192326113145 12.48571190067372 0.022471434206049915 0.031172848025201535 0.01695203902990836 0.030718749643778638 9.835145474571115e-05 -0.0465768305077288 -0.03257400302404164 0.019011407914661802 11.076913791827488 -0.04551621756081327 0.025927626722632484 -0.011745683200571528 -0.007438727153963268 -0.016261945434474342 -0.007855303684175386 -0.014890332033889625 -0.0024536133746617967 4.819104941910135 -0.008284536275284731 0.016470257182985747 0.03464669949938633 0.03164224225502426 -0.011822509131047473 -0.004057034054197899 0.007489932021508054 -0.03350897637979271 -5.554681377647665 -0.025297466447285488 0.04703789395436031 -6.761011112926045 0.03679049062765157 -0.003731106606756623 -6.707329638964166 0.04974802208033849 -0.011314920678932456 0.02132478368249068 0.016377967013323155 0.016620539551204922 8.037216440390637 3.5042197560219637 -19.225748828425992 -0.012849163404160169 10.389432551221578 -0.02523361262755103 -5.641178556286893 -15.708349589086746 3.1754287227175277 0.04223130921073711 -0.016929693594783635 -0.00038881960387448 0.03229295633258505 4.705140358174658 0.02869031620208624 12.425557961344596 -8.287622796286804 6.916104543123038 0.013497382660281432 46.36937056136988 -0.0018794963827868012 -4.321657325625912 -14.759683085369184 -3.82037432949276 -0.010155987017940274 -0.01757271100443106 -0.014258424390781274 0.029030010673315305 -10.746474339964035 0.028353296624066895 
